<svg aria-hidden="true" style="position: absolute; width: 0; height: 0; overflow: hidden;" version="1.1" xmlns="http://www.w3.org/2000/svg" xmlns:xlink="http://www.w3.org/1999/xlink">
<defs>
<symbol id="watsap" viewBox="0 0 32 32">
<path fill="#fff" style="fill: var(--color1, #fff)" d="M27.373 4.654c-2.963-3.016-7.060-4.654-11.244-4.654-8.891 0-16.038 7.154-15.953 15.858 0 2.758 0.785 5.43 2.093 7.843l-2.266 8.187 8.455-2.154c2.353 1.293 4.968 1.896 7.583 1.896 8.804 0 15.952-7.153 15.952-15.858 0-4.223-1.657-8.188-4.621-11.118zM16.129 28.958c-2.354 0-4.707-0.602-6.712-1.81l-0.523-0.258-5.055 1.293 1.307-4.912-0.348-0.518c-3.836-6.119-2.006-14.221 4.27-18.013s14.382-1.982 18.218 4.223c3.835 6.206 2.005 14.221-4.27 18.013-2.006 1.293-4.446 1.982-6.886 1.982zM23.799 19.392l-0.958-0.431s-1.395-0.603-2.266-1.034c-0.088 0-0.174-0.086-0.262-0.086-0.262 0-0.436 0.086-0.61 0.173 0 0-0.087 0.086-1.307 1.465-0.082 0.155-0.242 0.259-0.426 0.259-0.003 0-0.007-0-0.010-0h-0.087c-0.087 0-0.262-0.086-0.349-0.173l-0.436-0.172c-0.958-0.431-1.83-0.948-2.528-1.638-0.174-0.173-0.435-0.345-0.61-0.518-0.61-0.603-1.221-1.293-1.656-2.068l-0.088-0.173c-0.086-0.086-0.086-0.172-0.174-0.344 0-0.173 0-0.345 0.087-0.432 0 0 0.349-0.43 0.61-0.689 0.174-0.173 0.261-0.431 0.435-0.603 0.174-0.258 0.262-0.603 0.174-0.862-0.087-0.43-1.133-2.758-1.394-3.274-0.174-0.259-0.349-0.345-0.61-0.431h-0.958c-0.174 0-0.349 0.086-0.523 0.086l-0.087 0.086c-0.174 0.086-0.349 0.259-0.523 0.345-0.174 0.173-0.262 0.345-0.436 0.518-0.61 0.776-0.958 1.724-0.958 2.672 0 0.689 0.174 1.378 0.436 1.982l0.087 0.259c0.822 1.714 1.905 3.171 3.216 4.387l0.009 0.008 0.349 0.344c0.262 0.259 0.523 0.432 0.698 0.69 1.83 1.552 3.922 2.672 6.276 3.275 0.261 0.086 0.61 0.086 0.872 0.173h0.871c0.435 0 0.958-0.173 1.307-0.345 0.262-0.173 0.436-0.173 0.61-0.345l0.174-0.173c0.174-0.172 0.349-0.258 0.522-0.43s0.349-0.345 0.436-0.518c0.174-0.344 0.262-0.776 0.349-1.206v-0.603s-0.088-0.086-0.262-0.172z"></path>
</symbol>
<symbol id="telegram" viewBox="0 0 32 32">
<path fill="#40b3e0" style="fill: var(--color2, #40b3e0)" d="M16 0c-8.837 0-16 7.163-16 16s7.163 16 16 16 16-7.163 16-16-7.163-16-16-16z"></path>
<path fill="#fff" style="fill: var(--color1, #fff)" d="M23.788 9.197l-2.858 14.408s-0.4 1-1.498 0.52l-6.595-5.056-2.398-1.158-4.037-1.36s-0.619-0.219-0.68-0.698c-0.059-0.48 0.7-0.74 0.7-0.74l16.047-6.295s1.319-0.579 1.319 0.38z"></path>
<path fill="#d2e5f1" style="fill: var(--color3, #d2e5f1)" d="M12.328 23.446s-0.192-0.018-0.432-0.777c-0.24-0.76-1.458-4.757-1.458-4.757l9.692-6.154s0.56-0.34 0.54 0c0 0 0.1 0.060-0.2 0.339s-7.614 6.854-7.614 6.854z"></path>
<path fill="#b5cfe4" style="fill: var(--color4, #b5cfe4)" d="M15.363 21.013l-2.608 2.378s-0.204 0.154-0.427 0.058l0.5-4.418z"></path>
</symbol>
</defs>
</svg>
