<svg aria-hidden="true" style="position: absolute; width: 0; height: 0; overflow: hidden;" version="1.1" xmlns="http://www.w3.org/2000/svg" xmlns:xlink="http://www.w3.org/1999/xlink">
<defs>
<symbol id="telegram" viewBox="0 0 34 32">
<path   opacity="0.8" d="M32.526 16.131c0 8.706-7.058 15.764-15.764 15.764s-15.764-7.058-15.764-15.764c0-8.706 7.058-15.764 15.764-15.764s15.764 7.058 15.764 15.764zM17.326 12.005c-7.838 3.155-10.866 4.486-13.883 5.837l4.69-1.876c-0.747 0.296-1.138 0.587-1.173 0.87-0.061 0.482 0.541 0.67 1.359 0.926 0.111 0.035 0.227 0.070 0.344 0.11 0.806 0.262 1.89 0.568 2.45 0.579 0.51 0.012 1.082-0.198 1.71-0.629 4.294-2.9 6.51-4.364 6.648-4.396 0.099-0.021 0.236-0.050 0.328 0.032 0.091 0.081 0.082 0.236 0.073 0.279-0.061 0.253-2.417 2.446-3.639 3.581-0.381 0.354-0.649 0.603-0.706 0.661-0.122 0.128-0.248 0.25-0.37 0.366-0.748 0.721-1.307 1.262 0.032 2.146 0.645 0.424 1.158 0.774 1.673 1.125 0.561 0.381 1.12 0.762 1.844 1.239 0.184 0.12 0.361 0.244 0.533 0.366 0.652 0.468 1.24 0.885 1.966 0.82 0.419-0.040 0.856-0.434 1.076-1.615 0.523-2.793 1.55-8.841 1.787-11.334 0.015-0.207 0.006-0.416-0.027-0.62-0.020-0.171-0.103-0.32-0.225-0.426l-0.001-0.001c-0.187-0.154-0.478-0.187-0.61-0.184-0.594 0.011-1.502 0.328-5.882 2.149z"></path>
</symbol>
<symbol id="facebook" viewBox="0 0 32 32">
<path  opacity="0.8" d="M18.78 28.96c6.285-1.285 11.013-6.847 11.013-13.512 0-7.617-6.176-13.793-13.793-13.793s-13.793 6.176-13.793 13.793c0 6.599 4.633 12.115 10.823 13.472v-9.967h-3.099v-4.1h3.099v-3.504c0-2.752 1.831-5.28 6.048-5.28 1.707 0 2.971 0.159 2.971 0.159l-0.1 3.829s-1.288-0.012-2.693-0.012c-1.52 0-1.764 0.681-1.764 1.813v2.993h4.579l-0.2 4.101h-4.379v10.208c0.436-0.047 0.867-0.113 1.289-0.2z"></path>
</symbol>

<symbol id="gift" viewBox="0 0 32 32">
<path fill="none" opacity="0.9" stroke="#fff" style="stroke: var(--color1, #fff)" stroke-linejoin="round" stroke-linecap="round" stroke-miterlimit="4" stroke-width="1.3333" d="M26.24 16v10.133c0 1.473-1.194 2.667-2.667 2.667v0h-15.147c-1.473 0-2.667-1.194-2.667-2.667v0-10.133M16 28.8v-19.2M16 9.6h-5.76c-1.767 0-3.2-1.433-3.2-3.2s1.433-3.2 3.2-3.2v0c4.48 0 5.76 6.4 5.76 6.4zM16 9.6h5.76c1.767 0 3.2-1.433 3.2-3.2s-1.433-3.2-3.2-3.2v0c-4.48 0-5.76 6.4-5.76 6.4zM5.867 16h20.267c1.473 0 2.667-1.194 2.667-2.667v0-1.067c0-1.473-1.194-2.667-2.667-2.667v0h-20.267c-1.473 0-2.667 1.194-2.667 2.667v0 1.067c0 1.473 1.194 2.667 2.667 2.667v0z"></path>
</symbol>
<symbol id="earth" viewBox="0 0 32 32">
<path fill="#fff" style="fill: var(--color1, #fff)" opacity="0.9" d="M16.791 2.701l0.047-0.665-0.905-0.063 0.209 0.881 0.649-0.153zM28.267 11.335l0.23 0.625 0.625-0.23-0.229-0.625-0.627 0.229zM16.839 2.899v0zM17.163 3.503v0zM17.407 3.763v0zM17.666 5.029l0.627 0.229-0.627-0.228zM17.621 5.154v0zM18.28 6.567v0zM18.999 7.722v0zM18.864 8.977v0zM19.217 10.032v0zM20.302 11.19v0zM21.536 11.586v0zM24.343 11.025v0zM24.803 11.014v-0.001zM27.542 11.425v0.001zM28.2 11.359v0zM8.533 26.845l-0.371 0.555 0.357 0.239 0.365-0.227-0.351-0.567zM9.535 4.285l0.455-0.488-0.353-0.328-0.422 0.231 0.32 0.585zM10.469 5.154l0.454-0.487-0.454 0.488zM10.736 5.499v0zM11.34 6.625l-0.587 0.315 0.020 0.038 0.025 0.035 0.542-0.388zM12.509 8.257v0zM12.836 10.803v0zM13.104 11.55v0zM12.552 13.133v0zM11.451 13.816v0zM11.245 13.973v0zM9.922 15.205v0zM8.382 16.638v0zM8.003 17.959v0zM8.405 19.455v0zM8.784 20.085l-0.455 0.488 0.454-0.488zM9.684 20.923h0.001zM10.031 21.45v0zM10.631 23.125v0zM10.977 24.090v0zM10.424 25.673l0.352 0.567-0.351-0.567zM15.555 17.349v0zM16.628 16.374v0zM15.377 19.124l-0.538 0.394 0.538-0.393zM16.019 20v0zM16.261 20.995v0zM15.966 22.875v0.001zM16.013 23.352l0.626-0.229-0.627 0.229zM17.254 23.912v0zM18.892 23.274v0zM19.521 22.766v0zM20.484 21.307v0zM20.627 21.127l-0.485-0.458 0.485 0.457zM21.996 19.674l0.485 0.458-0.485-0.457zM21.777 17.658v0zM21.387 17.393l0.376-0.551-0.015-0.010-0.015-0.009-0.345 0.57zM20.312 16.741h0.001zM19.917 16.581v0zM18.447 16.247l-0.193 0.638 0.023 0.007 0.023 0.005 0.147-0.65zM17.911 16.085v0zM16.745 3.367c5.024 0.347 9.235 3.657 10.896 8.197l1.253-0.458c-1.837-5.021-6.494-8.684-12.057-9.069l-0.092 1.33zM16.143 2.855l0.047 0.197 1.298-0.307-0.047-0.198-1.298 0.307zM16.189 3.053c0.086 0.354 0.256 0.66 0.488 0.908l-0.001-0.001 0.973-0.912c-0.077-0.082-0.134-0.184-0.161-0.297l-0.001-0.005-1.297 0.307zM16.676 3.959l0.244 0.26 0.973-0.911-0.244-0.26-0.973 0.911zM16.92 4.219c0.147 0.157 0.193 0.382 0.119 0.583l1.253 0.456c0.073-0.193 0.114-0.417 0.114-0.65 0-0.504-0.196-0.962-0.515-1.302l0.001 0.001-0.973 0.911zM17.039 4.803l-0.045 0.124 1.253 0.456 0.045-0.124-1.253-0.456zM16.994 4.927c-0.067 0.18-0.107 0.388-0.107 0.605 0 0.76 0.479 1.409 1.152 1.659l0.012 0.004 0.456-1.253c-0.169-0.063-0.287-0.223-0.287-0.41 0-0.053 0.010-0.104 0.027-0.152l-0.001 0.003-1.253-0.456zM18.052 7.195c0.189 0.069 0.306 0.257 0.285 0.457l1.325 0.143c0.006-0.057 0.010-0.122 0.010-0.189 0-0.76-0.479-1.408-1.152-1.659l-0.012-0.004-0.456 1.253zM18.337 7.651l-0.135 1.255 1.326 0.143 0.135-1.255-1.325-0.143zM18.201 8.907c-0.007 0.064-0.012 0.139-0.012 0.214 0 0.529 0.206 1.010 0.541 1.368l-0.001-0.001 0.973-0.911c-0.111-0.119-0.18-0.279-0.18-0.455 0-0.025 0.001-0.050 0.004-0.074l-0 0.003-1.326-0.143zM18.73 10.488l1.085 1.159 0.973-0.911-1.085-1.159-0.973 0.911zM19.815 11.647c0.366 0.39 0.884 0.632 1.459 0.632 0.139 0 0.274-0.014 0.405-0.041l-0.013 0.002-0.261-1.307c-0.039 0.008-0.084 0.013-0.131 0.013-0.192 0-0.365-0.081-0.486-0.211l-0-0-0.973 0.911zM21.667 12.24l2.807-0.56-0.261-1.308-2.807 0.561 0.261 1.307zM24.473 11.68c0.076-0.015 0.153-0.017 0.23-0.007l0.198-1.318c-0.089-0.014-0.192-0.022-0.297-0.022-0.139 0-0.274 0.014-0.405 0.041l0.013-0.002 0.261 1.307zM24.703 11.673l2.74 0.412 0.198-1.319-2.74-0.411-0.198 1.319zM27.443 12.085c0.089 0.014 0.192 0.022 0.297 0.022 0.248 0 0.485-0.045 0.704-0.127l-0.014 0.005-0.46-1.251c-0.068 0.026-0.147 0.041-0.23 0.041-0.035 0-0.069-0.003-0.103-0.008l0.004 0-0.199 1.319zM28.43 11.985l0.067-0.025-0.46-1.251-0.067 0.025 0.46 1.251zM8.905 26.293c-3.36-2.249-5.571-6.079-5.571-10.423h-1.333c0 4.808 2.448 9.044 6.162 11.531l0.742-1.108zM3.333 15.87c0-4.743 2.633-8.871 6.521-11l-0.641-1.169c-4.297 2.353-7.213 6.919-7.213 12.169h1.333zM10.923 4.667l-0.934-0.869-0.909 0.976 0.935 0.869 0.909-0.976zM11.323 5.184c-0.109-0.2-0.242-0.37-0.398-0.516l-0.001-0.001-0.909 0.976c0.053 0.049 0.097 0.106 0.132 0.169l0.002 0.003 1.175-0.631zM11.927 6.31l-0.605-1.126-1.175 0.631 0.605 1.125 1.175-0.631zM13.051 7.869l-1.169-1.632-1.084 0.777 1.169 1.632 1.084-0.777zM13.425 9.033c0-0 0-0.001 0-0.001 0-0.437-0.14-0.841-0.377-1.169l0.004 0.006-1.085 0.777c0.078 0.108 0.125 0.242 0.125 0.388v0h1.333zM13.425 10.353v-1.32h-1.333v1.32h1.333zM13.464 10.579c-0.025-0.067-0.039-0.145-0.039-0.225v0h-1.333c0 0.242 0.043 0.474 0.122 0.689l-0.004-0.014 1.255-0.449zM13.731 11.326l-0.267-0.747-1.255 0.449 0.268 0.747 1.255-0.449zM12.903 13.699c0.571-0.359 0.945-0.985 0.945-1.699 0-0.242-0.043-0.474-0.121-0.688l0.004 0.014-1.255 0.449c0.025 0.067 0.039 0.144 0.039 0.225 0 0.238-0.125 0.447-0.312 0.565l-0.003 0.002 0.703 1.133zM11.802 14.383l1.101-0.683-0.703-1.133-1.101 0.683 0.703 1.133zM11.699 14.461c0.030-0.028 0.064-0.054 0.1-0.076l0.003-0.002-0.703-1.133c-0.116 0.073-0.217 0.15-0.309 0.237l0.001-0.001 0.909 0.975zM10.376 15.693l1.323-1.232-0.909-0.975-1.323 1.231 0.909 0.976zM8.836 17.127l1.54-1.433-0.909-0.976-1.54 1.433 0.909 0.976zM8.647 17.787c-0.014-0.052-0.023-0.111-0.023-0.173 0-0.192 0.081-0.366 0.212-0.487l0-0-0.908-0.976c-0.393 0.366-0.638 0.887-0.638 1.464 0 0.184 0.025 0.363 0.072 0.532l-0.003-0.014 1.288-0.346zM9.048 19.283l-0.401-1.495-1.288 0.346 0.402 1.495 1.287-0.346zM9.238 19.598c-0.089-0.083-0.156-0.19-0.189-0.311l-0.001-0.005-1.287 0.346c0.103 0.375 0.301 0.696 0.568 0.944l0.001 0.001 0.909-0.976zM10.138 20.436l-0.9-0.838-0.909 0.976 0.901 0.838 0.909-0.976zM10.659 21.226c-0.113-0.312-0.291-0.577-0.519-0.789l-0.001-0.001-0.909 0.976c0.078 0.073 0.137 0.163 0.173 0.263l1.255-0.449zM11.259 22.901l-0.6-1.675-1.255 0.449 0.6 1.675 1.255-0.449zM11.604 23.866l-0.345-0.965-1.255 0.449 0.346 0.965 1.255-0.449zM10.776 26.239c0.571-0.359 0.945-0.985 0.945-1.699 0-0.242-0.043-0.474-0.121-0.688l0.004 0.014-1.255 0.449c0.025 0.067 0.039 0.144 0.039 0.225 0 0.238-0.125 0.447-0.313 0.565l-0.003 0.002 0.703 1.133zM8.885 27.413l1.891-1.173-0.703-1.133-1.891 1.173 0.703 1.133zM16.004 17.843l1.072-0.975-0.897-0.987-1.072 0.975 0.897 0.987zM15.915 18.73c-0.080-0.109-0.129-0.246-0.129-0.394 0-0.195 0.084-0.371 0.217-0.493l0.001-0-0.897-0.987c-0.403 0.367-0.655 0.894-0.655 1.48 0 0.445 0.145 0.856 0.391 1.188l-0.004-0.005 1.075-0.789zM16.557 19.606l-0.642-0.875-1.075 0.789 0.643 0.875 1.075-0.789zM16.92 21.099c0.015-0.093 0.024-0.201 0.024-0.311 0-0.445-0.145-0.856-0.391-1.188l0.004 0.005-1.075 0.789c0.081 0.109 0.129 0.246 0.129 0.394 0 0.037-0.003 0.073-0.009 0.108l0.001-0.004 1.317 0.207zM16.625 22.979l0.295-1.88-1.317-0.207-0.295 1.88 1.317 0.207zM16.638 23.123c-0.011-0.029-0.017-0.062-0.017-0.097 0-0.016 0.001-0.032 0.004-0.048l-0 0.002-1.317-0.207c-0.012 0.076-0.020 0.163-0.020 0.251 0 0.2 0.036 0.392 0.103 0.569l-0.004-0.011 1.252-0.459zM17.011 23.292c-0.031 0.012-0.067 0.020-0.104 0.020-0.123 0-0.228-0.077-0.269-0.186l-0.001-0.002-1.251 0.459c0.234 0.625 0.826 1.063 1.521 1.063 0.212 0 0.414-0.041 0.599-0.114l-0.011 0.004-0.484-1.242zM18.651 22.653l-1.639 0.639 0.484 1.242 1.638-0.638-0.484-1.243zM18.965 22.4c-0.076 0.114-0.184 0.202-0.31 0.252l-0.005 0.002 0.484 1.243c0.393-0.156 0.715-0.42 0.939-0.755l0.005-0.007-1.113-0.735zM19.927 20.94l-0.963 1.46 1.113 0.733 0.963-1.458-1.113-0.735zM20.141 20.67c-0.076 0.081-0.146 0.169-0.209 0.263l-0.005 0.007 1.113 0.735c0.022-0.034 0.046-0.064 0.072-0.091l-0 0-0.971-0.915zM21.511 19.218l-1.369 1.452 0.971 0.915 1.369-1.452-0.971-0.915zM21.401 18.21c0.177 0.122 0.291 0.323 0.291 0.551 0 0.177-0.069 0.338-0.182 0.458l0-0 0.971 0.915c0.337-0.357 0.545-0.84 0.545-1.372 0-0.684-0.343-1.288-0.867-1.648l-0.007-0.004-0.751 1.102zM21.012 17.944l0.389 0.266 0.751-1.102-0.389-0.265-0.751 1.101zM19.967 17.312l1.075 0.651 0.691-1.14-1.075-0.652-0.691 1.14zM19.769 17.232c0.069 0.016 0.136 0.043 0.197 0.080l0.691-1.14c-0.171-0.105-0.369-0.188-0.58-0.237l-0.014-0.003-0.296 1.3zM18.3 16.898l1.469 0.333 0.295-1.3-1.469-0.333-0.295 1.3zM17.718 16.723l0.536 0.163 0.387-1.276-0.536-0.163-0.387 1.276zM17.076 16.868c0.118-0.108 0.276-0.173 0.448-0.173 0.069 0 0.136 0.011 0.198 0.030l-0.005-0.001 0.387-1.276c-0.174-0.055-0.373-0.086-0.58-0.086-0.519 0-0.991 0.197-1.347 0.521l0.002-0.001 0.897 0.987z"></path>
<path fill="none" opacity="0.9" stroke="#fff" style="stroke: var(--color1, #fff)" stroke-linejoin="miter" stroke-linecap="butt" stroke-miterlimit="4" stroke-width="1.3333" d="M29.067 15.87c0 7.29-5.91 13.2-13.2 13.2s-13.2-5.91-13.2-13.2c0-7.29 5.91-13.2 13.2-13.2s13.2 5.91 13.2 13.2z"></path>
</symbol>
<symbol id="tv" viewBox="0 0 32 32">
<path fill="none" opacity="0.9" stroke="#fff" style="stroke: var(--color1, #fff)" stroke-linejoin="round" stroke-linecap="round" stroke-miterlimit="4" stroke-width="1.3333" d="M22.667 2.67l-6.667 6.667-6.667-6.667M5.334 9.337h21.333c1.473 0 2.667 1.194 2.667 2.667v0 14.667c0 1.473-1.194 2.667-2.667 2.667v0h-21.333c-1.473 0-2.667-1.194-2.667-2.667v0-14.667c0-1.473 1.194-2.667 2.667-2.667v0zM9.723 14.687h12.962M9.723 19.447h12.962M9.723 24.205h12.962"></path>
</symbol>
<symbol id="devices" viewBox="0 0 32 32">
<path fill="none" opacity="0.9" stroke="#fff" style="stroke: var(--color1, #fff)" stroke-linejoin="miter" stroke-linecap="butt" stroke-miterlimit="4" stroke-width="1.3333" d="M14.443 22.269h-10.179c-1.472 0-2.666-1.194-2.666-2.666 0-0 0-0 0-0.001v0-12.267c0-1.473 1.19-2.667 2.663-2.667h21.871c1.473 0 2.665 1.194 2.665 2.667v4"></path>
<path fill="#fff" style="fill: var(--color1, #fff)" opacity="0.9" d="M9.215 25.81c-0.246 0.102-0.417 0.34-0.417 0.618 0 0.368 0.298 0.667 0.667 0.667 0.101 0 0.197-0.023 0.284-0.063l-0.004 0.002-0.529-1.223zM14.375 24.472c-1.076 0-2.386 0.351-3.377 0.674-0.767 0.25-1.354 0.474-1.929 0.719l0.157-0.060-0.007 0.003c-0.001 0-0.001 0-0.002 0.001l-0 0h-0.001l0.265 0.613c0.265 0.611 0.264 0.612 0.264 0.612l0.001-0.001 0.005-0.002 0.023-0.010 0.093-0.039c0.081-0.033 0.2-0.082 0.35-0.14 0.3-0.117 0.719-0.273 1.195-0.429 0.975-0.318 2.113-0.609 2.963-0.609v-1.333z"></path>
<path fill="none" opacity="0.9" stroke="#fff" style="stroke: var(--color1, #fff)" stroke-linejoin="miter" stroke-linecap="butt" stroke-miterlimit="4" stroke-width="1.3333" d="M24.444 26.67h-8.047c-1.105 0-2-0.895-2-2v0-14c0-1.105 0.895-2 2-2v0h10.4c1.105 0 2 0.895 2 2v0 2.222"></path>
<path fill="none" opacity="0.9" stroke="#fff" style="stroke: var(--color1, #fff)" stroke-linejoin="miter" stroke-linecap="round" stroke-miterlimit="4" stroke-width="1.3333" d="M20.498 23.384h1.4"></path>
<path fill="none" opacity="0.9" stroke="#fff" style="stroke: var(--color1, #fff)" stroke-linejoin="miter" stroke-linecap="butt" stroke-miterlimit="4" stroke-width="1.3333" d="M23.875 14.902c0-1.105 0.895-2 2-2v0h2.969c1.105 0 2 0.895 2 2v0 9.933c0 1.105-0.895 2-2 2v0h-2.969c-1.105 0-2-0.895-2-2v0-9.933z"></path>
<path fill="none" opacity="0.9" stroke="#fff" style="stroke: var(--color1, #fff)" stroke-linejoin="miter" stroke-linecap="round" stroke-miterlimit="4" stroke-width="1.3333" d="M26.86 24.303h0.996"></path>
</symbol>

<symbol id="samsung" viewBox="0 0 200 32">
<path fill="#244a9a" style="fill: var(--color1, #244a9a)" d="M103.136 10.884v11.075l-8.957-6.194 8.957-4.881z"></path>
<path fill="#95a948" style="fill: var(--color2, #95a948)" d="M85.315 10.884v11.075l8.86-6.194-8.86-4.881z"></path>
<path fill="#ffde14" style="fill: var(--color3, #ffde14)" d="M94.177-0.186l-11.557 6.289h11.557v-6.289z"></path>
<path fill="#f0c3c0" style="fill: var(--color4, #f0c3c0)" d="M94.179-0.186l11.557 6.289h-11.557v-6.289z"></path>
<path fill="#d3d80e" style="fill: var(--color5, #d3d80e)" d="M94.175 15.77l-11.461 7.884h11.461v-7.885z"></path>
<path fill="#2dafe6" style="fill: var(--color6, #2dafe6)" d="M94.179 15.77l11.557 7.884h-11.557v-7.885z"></path>
<path fill="#fbef82" style="fill: var(--color7, #fbef82)" d="M82.714 23.656h11.461v7.697l-11.461-7.697z"></path>
<path fill="#afdff9" style="fill: var(--color8, #afdff9)" d="M105.736 23.656h-11.557v7.697l11.557-7.697z"></path>
<path fill="#f18825" style="fill: var(--color9, #f18825)" d="M82.714 6.101h11.558v6.289l-11.558-6.289z"></path>
<path fill="#e94287" style="fill: var(--color10, #e94287)" d="M105.736 6.101h-11.557v6.289l11.557-6.289z"></path>
<path fill="#fff" style="fill: var(--color11, #fff)" opacity="0.8" d="M105.732 23.653v-17.551l-11.557 6.289-11.461-6.289v17.551l2.6 1.784v-14.547l8.861 4.881 8.957-4.881v14.548l2.6-1.784zM139.731 17.274c0.963-0.376 1.83-0.939 2.504-1.783 0.77-0.939 1.155-2.159 1.155-3.473-0.002-0.848-0.179-1.654-0.496-2.385l0.015 0.039c-0.289-0.751-0.771-1.315-1.348-1.878-0.578-0.47-1.349-0.938-2.215-1.22s-1.83-0.376-2.89-0.376h-7.416v19.335h2.6v-16.8h4.815c1.445 0 2.504 0.281 3.178 0.845s1.059 1.407 1.059 2.44c0 1.126-0.385 1.877-1.059 2.44-0.771 0.563-1.83 0.845-3.178 0.845h-3.178v2.44h3.852l3.66 7.696h2.889l-3.949-8.166zM145.606 6.291v2.44h5.971v16.801h2.6v-16.8h5.971v-2.442h-14.543zM118.255 6.291h-2.215l-7.608 19.241h2.793l2.408-6.007h7.223l2.408 6.007h2.697l-7.705-19.241zM114.499 17.273l2.696-6.852 2.697 6.852h-5.393zM78.765 18.020c-0.287-0.657-0.677-1.218-1.155-1.688l-0.001-0.001c-0.481-0.47-1.059-0.845-1.734-1.22-0.674-0.282-1.445-0.563-2.215-0.657l-3.564-0.469c-0.385-0.094-0.77-0.094-1.155-0.282-0.289-0.094-0.579-0.282-0.867-0.47-0.193-0.188-0.385-0.469-0.577-0.751-0.122-0.336-0.192-0.723-0.193-1.127v-0c0-0.469 0.096-0.938 0.289-1.219 0.193-0.376 0.481-0.657 0.77-0.939 0.389-0.289 0.834-0.541 1.308-0.736l0.041-0.015c0.577-0.188 1.155-0.188 1.734-0.188 0.77 0 1.541 0.095 2.118 0.376 0.578 0.188 1.059 0.563 1.445 0.939 0.289 0.281 0.481 0.563 0.578 0.938 0.096 0.281 0.289 0.657 0.289 1.126l0.096 0.469h2.6l-0.096-0.657c-0.096-0.751-0.193-1.408-0.481-1.971s-0.674-1.032-1.059-1.501c-0.578-0.657-1.445-1.22-2.408-1.596-0.905-0.357-1.954-0.564-3.050-0.564-0.011 0-0.022 0-0.033 0h0.002c-0.963 0-1.83 0.188-2.697 0.47s-1.637 0.751-2.311 1.315c-0.49 0.478-0.934 1-1.326 1.56l-0.023 0.035c-0.385 0.657-0.577 1.408-0.577 2.253 0 0.751 0.096 1.502 0.385 2.065s0.675 1.127 1.156 1.596 1.059 0.751 1.637 1.032c0.578 0.282 1.252 0.376 2.023 0.47l3.467 0.469c0.481 0.094 0.963 0.188 1.348 0.376s0.674 0.376 0.963 0.657c0.289 0.282 0.481 0.563 0.578 0.845s0.193 0.657 0.193 1.033c0 0.469-0.097 0.938-0.289 1.22-0.192 0.376-0.385 0.657-0.674 0.938-0.481 0.376-0.963 0.657-1.637 0.845s-1.445 0.282-2.215 0.282c-0.674 0-1.445-0.094-2.023-0.376-0.674-0.188-1.155-0.563-1.637-0.938-0.323-0.312-0.584-0.687-0.762-1.105l-0.008-0.022c-0.193-0.375-0.385-0.844-0.385-1.313l-0.097-0.563h-2.696l0.096 0.657c0.097 0.751 0.289 1.502 0.577 2.159s0.771 1.22 1.252 1.784c0.675 0.751 1.542 1.22 2.504 1.595s2.022 0.563 3.178 0.563c1.155 0 2.215-0.188 3.178-0.47s1.83-0.845 2.504-1.501c0.481-0.47 0.867-1.033 1.155-1.596 0.303-0.662 0.48-1.437 0.481-2.252v-0c0.385-0.563 0.289-1.22 0-1.878zM185.764 25.628h1.734l7.608-19.429h-2.023l-6.452 16.707-6.646-16.706h-14.543v1.783h6.26v17.645h1.83v-17.645h5.201l7.031 17.645z"></path>
<path fill="#fff" style="fill: var(--color11, #fff)" opacity="0.8" d="M103.136 10.888v14.548l2.6-1.784v-17.551l-11.557 6.289v3.379l8.957-4.881zM5.668 15.304c-1.252-0.376-1.541-1.408-1.541-2.253v-0.282c0-1.596 0.867-2.44 2.697-2.44h0.866c1.445 0 2.312 0.563 2.312 2.065 0 0.376-0.193 0.657-0.674 0.657s-0.674-0.282-0.674-0.657c0-0.563-0.385-0.845-0.963-0.845h-0.867c-0.963 0-1.445 0.376-1.445 1.22v0.282c0 0.563 0.385 0.938 0.77 1.032l2.504 0.938c1.059 0.376 1.638 1.127 1.638 2.346v0.47c0 1.595-0.867 2.534-2.697 2.534h-1.347c-1.445 0-2.312-0.563-2.312-2.065 0-0.376 0.193-0.657 0.675-0.657s0.673 0.282 0.673 0.657c0 0.563 0.385 0.845 0.963 0.845h1.445c0.963 0 1.444-0.47 1.444-1.315v-0.469c0-0.563-0.289-0.939-0.674-1.126l-2.793-0.939zM15.011 13.047c1.444 0 2.311 0.845 2.311 2.159v4.412c0 0.376-0.193 0.657-0.674 0.657h-2.6c-1.348 0-2.119-0.563-2.119-1.877v-1.032c0-1.315 0.867-1.878 2.119-1.878h2.023v-0.282c0-0.657-0.385-0.938-0.963-0.938h-1.83c-0.385 0-0.675-0.188-0.675-0.563s0.289-0.563 0.675-0.563h1.734v-0.094zM15.974 19.054v-2.44h-2.022c-0.577 0-0.867 0.282-0.867 0.751v1.032c0 0.376 0.289 0.751 0.867 0.751h2.022v-0.095zM26.182 15.581c0-0.845-0.385-1.314-1.348-1.314h-0.771v5.537c0 0.376-0.193 0.657-0.674 0.657s-0.675-0.282-0.675-0.657v-5.537h-2.118v5.537c0 0.376-0.193 0.657-0.674 0.657s-0.674-0.282-0.674-0.657v-6.1c0-0.375 0.193-0.657 0.675-0.657h4.911c1.734 0 2.6 0.939 2.6 2.534v4.224c0 0.376-0.193 0.657-0.675 0.657s-0.674-0.282-0.674-0.657v-4.223h0.097zM31.388 20.366c-1.348 0-2.119-0.47-2.119-1.69 0-0.375 0.193-0.657 0.675-0.657s0.577 0.282 0.673 0.657c0 0.282 0.289 0.563 0.867 0.563h1.156c0.674 0 0.867-0.376 0.867-0.751v-0.47c0-0.376-0.193-0.469-0.481-0.657l-2.216-0.563c-0.867-0.281-1.252-0.845-1.252-1.689v-0.376c0-1.314 0.771-1.877 2.119-1.877h0.771c1.348 0 2.119 0.469 2.119 1.689 0 0.376-0.097 0.657-0.675 0.657-0.481 0-0.577-0.282-0.674-0.657 0-0.281-0.289-0.563-0.77-0.563h-0.771c-0.674 0-0.867 0.376-0.867 0.751v0.376c0 0.282 0.193 0.47 0.481 0.657l2.216 0.563c0.867 0.282 1.348 0.751 1.348 1.689v0.47c0 1.314-0.771 1.877-2.119 1.877h-1.348zM37.645 17.738c0 0.845 0.385 1.314 1.349 1.314h1.734v-5.537c0-0.376 0.192-0.657 0.674-0.657s0.674 0.282 0.674 0.657v6.101c0 0.376-0.193 0.657-0.675 0.657h-2.311c-1.83 0-2.6-0.938-2.6-2.534v-4.224c0-0.376 0.193-0.657 0.675-0.657 0.481 0 0.673 0.282 0.673 0.657v4.224h-0.193zM48.43 15.581c0-0.845-0.385-1.314-1.348-1.314h-1.734v5.537c0 0.376-0.193 0.657-0.674 0.657s-0.674-0.282-0.674-0.657v-6.1c0-0.375 0.193-0.657 0.675-0.657h2.311c1.734 0 2.6 0.939 2.6 2.534v4.224c0 0.376-0.193 0.657-0.675 0.657s-0.674-0.282-0.674-0.657v-4.223h0.193zM57.197 21.023c0 1.503-0.867 2.722-2.697 2.722h-1.541c-0.289 0-0.675-0.188-0.675-0.563s0.289-0.563 0.675-0.563h1.637c0.963 0 1.445-0.657 1.445-1.502v-0.751h-1.734c-1.734 0-2.6-0.938-2.6-2.534v-1.971c0-1.596 0.867-2.722 2.696-2.722h2.312c0.481 0 0.675 0.282 0.675 0.657v7.228h-0.193zM54.307 14.172c-0.963 0-1.348 0.657-1.348 1.502v1.971c0 0.845 0.385 1.315 1.348 1.315h1.734v-4.787h-1.734z"></path>
</symbol>
<symbol id="android" viewBox="0 0 200 32">
<path fill="#77c159" style="fill: var(--color12, #77c159)" d="M27.652 8.918c2.632 0 4.826 1.345 5.848 2.798v-2.435h4.021v18.163h-2.732c-0.001 0-0.003 0-0.004 0-0.709 0-1.283-0.573-1.286-1.281v-1.151c-1.023 1.452-3.217 2.795-5.849 2.795-5.007 0-8.809-4.249-8.809-9.444s3.803-9.446 8.809-9.446zM28.383 12.552c-3.254 0-5.447 2.543-5.447 5.812s2.193 5.813 5.447 5.813 5.448-2.544 5.448-5.813c0-3.27-2.194-5.812-5.447-5.812zM42.090 9.281h4.021v2.47c1.096-1.816 3.181-2.833 5.557-2.833 4.24 0 6.982 2.979 6.982 7.593v10.932h-2.732c-0.001 0-0.002 0-0.004 0-0.709 0-1.284-0.573-1.286-1.281v-8.997c0-2.87-1.463-4.614-3.801-4.614-2.669 0-4.716 2.071-4.716 5.957v8.936h-2.733c-0.001 0-0.002 0-0.003 0-0.709 0-1.283-0.573-1.286-1.281v-16.882zM70.639 8.918c2.632 0 4.826 1.345 5.849 2.798v-11.514h4.019v27.245h-2.73c-0.001 0-0.002 0-0.003 0-0.709 0-1.284-0.574-1.286-1.282v-1.15c-1.023 1.452-3.217 2.795-5.849 2.795-5.009 0-8.81-4.249-8.81-9.444s3.802-9.446 8.81-9.446zM71.37 12.552c-3.253 0-5.447 2.542-5.447 5.812 0 3.268 2.194 5.812 5.447 5.812 3.251 0 5.445-2.543 5.445-5.812s-2.193-5.812-5.445-5.812zM85.073 9.279h4.021v3.233c0.694-2.070 2.741-3.414 4.826-3.414 0.51 0 1.024 0.037 1.571 0.146v4.104c-0.696-0.218-1.279-0.327-2.010-0.327-2.303 0-4.387 1.926-4.387 5.558v8.863h-2.732c-0.001 0-0.002 0-0.003 0-0.709 0-1.284-0.573-1.286-1.281v-16.882zM106.332 27.808c-5.409 0-9.576-4.178-9.576-9.443 0-5.267 4.168-9.446 9.576-9.446 5.411 0 9.577 4.178 9.577 9.447 0 5.265-4.166 9.443-9.577 9.443zM106.332 24.104c3.217 0 5.484-2.508 5.484-5.739 0-3.233-2.267-5.741-5.484-5.741-3.252 0-5.519 2.508-5.519 5.74s2.266 5.739 5.519 5.739zM121.178 5.324c-1.462 0-2.705-1.197-2.705-2.689 0-1.453 1.243-2.651 2.705-2.651 0.005-0 0.011-0 0.017-0 1.464 0 2.651 1.187 2.652 2.651v0c0 1.491-1.17 2.689-2.669 2.689zM119.169 9.282h4.019v18.163h-2.73c-0.001 0-0.002 0-0.003 0-0.709 0-1.284-0.573-1.286-1.281v-16.882zM135.302 8.918c2.632 0 4.826 1.345 5.85 2.798v-11.514h4.020v27.245h-2.73c-0.002 0-0.004 0-0.006 0-0.708 0-1.283-0.574-1.284-1.282v-1.15c-1.024 1.452-3.218 2.795-5.85 2.795-5.006 0-8.808-4.249-8.808-9.444s3.802-9.446 8.808-9.446zM136.034 12.552c-3.251 0-5.445 2.542-5.445 5.812 0 3.268 2.193 5.812 5.445 5.812 3.254 0 5.448-2.543 5.448-5.812s-2.193-5.812-5.448-5.812z"></path>
<path fill="#fff" style="fill: var(--color11, #fff)" opacity="0.8" d="M152.165 11.598h-3.934v-2.41h3.934v-5.078h2.573v5.078h5.368v2.41h-5.368v10.558c0 2.227 0.993 3.104 3.051 3.104 0.735 0 1.728-0.146 2.317-0.401v2.301c-0.847 0.329-1.728 0.475-2.721 0.475-3.124 0-5.219-1.791-5.219-5.262v-10.776zM181.021 9.179l-8.6 18.266h-2.022l-8.602-18.266h2.867l6.727 14.503 6.726-14.503h2.904z"></path>
</symbol>
<symbol id="ios" viewBox="0 0 154 32">
<path fill="#fff" style="fill: var(--color11, #fff)" opacity="0.8" d="M74.915 27.103h-2.125v-12.746h2.125v12.744zM73.853 12.233c-0.744 0-1.381-0.637-1.381-1.381s0.637-1.38 1.381-1.38 1.381 0.637 1.381 1.381c0 0.743-0.637 1.38-1.381 1.38zM86.703 27.421c-5.629 0-9.24-4.035-9.24-10.408s3.611-10.408 9.24-10.408c5.629 0 9.24 4.035 9.24 10.408s-3.611 10.408-9.24 10.408zM93.926 17.012c0-5.31-2.762-8.709-7.222-8.709s-7.222 3.399-7.222 8.71c0 5.31 2.762 8.602 7.222 8.602s7.222-3.293 7.222-8.603zM105.29 27.421c-4.248 0-7.222-2.336-7.434-5.841h1.912c0.212 2.443 2.442 4.036 5.629 4.036 3.080 0 5.204-1.699 5.204-3.93 0-1.912-1.274-2.974-4.354-3.717l-2.549-0.637c-3.718-0.957-5.417-2.55-5.417-5.204 0-3.293 2.974-5.629 6.904-5.629s6.797 2.337 6.904 5.523h-1.699c-0.106-2.23-2.124-3.718-4.992-3.718-2.761 0-4.886 1.593-4.886 3.824 0 1.699 1.275 2.762 4.248 3.505l2.23 0.531c4.036 1.062 5.736 2.549 5.736 5.416-0.106 3.505-2.867 5.841-7.434 5.841zM64.294 21.898c-0.424 0.956-0.956 1.912-1.487 2.655-0.744 1.169-1.381 1.912-1.912 2.337-0.744 0.744-1.593 1.062-2.443 1.062-0.637 0-1.38-0.213-2.336-0.531-0.85-0.319-1.699-0.531-2.443-0.531s-1.593 0.212-2.549 0.531c-0.849 0.319-1.593 0.531-2.23 0.531-0.849 0-1.699-0.319-2.549-1.169-0.531-0.424-1.169-1.274-2.017-2.442-0.85-1.169-1.594-2.655-2.125-4.248s-0.85-3.293-0.85-4.886c0-1.912 0.425-3.505 1.169-4.779 0.635-1.055 1.494-1.914 2.516-2.53l0.033-0.018c0.969-0.597 2.142-0.952 3.397-0.956h0.001c0.637 0 1.593 0.212 2.655 0.637s1.806 0.637 2.124 0.637c0.213 0 0.957-0.213 2.337-0.744 1.274-0.424 2.336-0.637 3.186-0.531 2.336 0.212 4.142 1.062 5.31 2.762-2.124 1.274-3.080 3.080-3.080 5.31 0 1.805 0.637 3.293 1.912 4.461 0.531 0.531 1.169 0.956 1.912 1.274-0.228 0.335-0.41 0.724-0.525 1.141l-0.007 0.028zM58.877 0.763c0 1.38-0.531 2.655-1.487 3.93-1.169 1.38-2.655 2.23-4.248 2.124v-0.531c0-1.381 0.531-2.762 1.593-3.93 0.531-0.637 1.169-1.062 1.912-1.487s1.487-0.637 2.23-0.637v0.531z"></path>
</symbol>
<symbol id="lg" viewBox="0 0 238 32">
<path fill="#fff" style="fill: var(--color11, #fff)" opacity="0.8" d="M138.056 18.16l4.893 9.178h3.199l-4.893-9.359-3.199 0.18zM147.659 8.617h7.151v18.717h3.011v-18.717h7.151v-1.979h-17.313v1.979zM79.718 27.701c4.517 0 7.339-1.981 7.528-5.040s-1.505-4.679-6.21-6.479c-3.952-1.44-5.269-2.699-5.269-4.499 0-1.98 1.882-3.24 4.704-3.24 2.258 0 4.141 0.36 5.27 0.9l0.941-1.8c-1.693-0.72-3.952-1.080-6.774-1.080-4.516 0-7.151 2.339-7.151 5.398 0 3.060 1.882 4.68 6.209 6.3 3.952 1.44 5.081 2.339 5.081 4.319s-1.882 3.419-5.269 3.239c-1.694 0-3.952-0.72-5.269-1.44l-0.941 1.8c1.129 0.54 3.387 1.619 7.151 1.619zM111.715 6.822h-4.704l-6.022 18.537-6.022-18.537h-4.704v20.517h2.258v-18.897l6.209 18.897h3.952l6.022-18.897v18.897h0.376l2.634-7.019v-13.498z"></path>
<path fill="#fff" style="fill: var(--color11, #fff)" opacity="0.8" d="M144.080 8.077c-1.318-0.899-3.199-1.44-5.645-1.44h-7.715v12.598l3.011 7.739v-18.358h4.516c3.576 0 4.705 1.62 4.705 3.96 0 2.52-1.129 4.319-5.269 4.319h-3.011v1.8h4.893c3.951 0 6.209-2.88 6.209-5.939 0.189-2.16-0.564-3.779-1.693-4.68zM210.32 6.817h-3.199l-6.398 17.457-6.586-17.457h-3.387l7.715 20.517h4.14l7.715-20.517zM170.616 8.437h7.339v18.897h3.952v-18.897h7.339v-1.62h-18.63v1.62z"></path>
<path fill="#fff" style="fill: var(--color11, #fff)" opacity="0.8" d="M53.942 19.422h4.139v3.599c-0.752 0.36-2.257 0.719-3.763 0.719-4.515 0-6.022-2.159-6.022-6.659 0-4.319 1.506-6.659 6.022-6.659 2.446 0 3.951 0.72 5.080 2.16l3.011-2.699c-1.882-2.52-5.27-3.42-8.28-3.42-6.963 0-10.726 3.599-10.726 10.618s3.388 10.618 10.727 10.618c3.386 0 6.586-0.9 8.467-1.98v-10.078h-8.656v3.779zM32.493 6.643h-4.893v20.696h15.243v-3.958h-10.35v-16.737z"></path>
<path fill="#1999d6" style="fill: var(--color13, #1999d6)" d="M123.945 14.020l2.822-1.619-3.199-8.459-1.882 4.139 2.259 5.939z"></path>
<path fill="#30bec2" style="fill: var(--color14, #30bec2)" d="M126.767 12.399l-2.822 1.619 1.317 3.059 4.14 2.34-2.634-7.019z"></path>
<path fill="#97c742" style="fill: var(--color15, #97c742)" d="M121.871 19.599l1.694 1.26-1.694 1.080 7.715 5.939-1.318-3.42-6.398-4.859z"></path>
<path fill="#f68524" style="fill: var(--color16, #f68524)" d="M121.869 19.599l-7.151 5.039-1.318 3.24 8.468-5.939-1.693-1.080 1.693-1.259z"></path>
<path fill="#9d7230" style="fill: var(--color17, #9d7230)" d="M121.869 19.599l-1.693 1.26 1.693 1.080 1.694-1.080-1.694-1.259z"></path>
<path fill="#71c596" style="fill: var(--color18, #71c596)" d="M129.397 19.418l-4.14-2.34 3.011 7.379 4.328 3.42-3.199-8.459z"></path>
<path fill="#38b24b" style="fill: var(--color19, #38b24b)" d="M128.273 24.458l1.318 3.419h3.011l-4.328-3.419z"></path>
<path fill="#f15c2a" style="fill: var(--color20, #f15c2a)" d="M117.733 17.795l-4.516 2.7-3.011 7.379 4.516-3.239 3.011-6.839z"></path>
<path fill="#ef3b25" style="fill: var(--color21, #ef3b25)" d="M110.206 27.877h3.199l1.318-3.239-4.516 3.239z"></path>
<path fill="#6e449b" style="fill: var(--color22, #6e449b)" d="M121.685 8.081l-1.693-4.139-3.199 8.098 2.634 1.44 2.258-5.399z"></path>
<path fill="#ed174f" style="fill: var(--color23, #ed174f)" d="M116.794 12.045l-3.575 8.459 4.516-2.7 1.693-4.32-2.634-1.439z"></path>
<path fill="#3c2e46" style="fill: var(--color24, #3c2e46)" d="M123.564 3.942h-3.576l1.694 4.139 1.882-4.139z"></path>
</symbol>

<symbol id="arrow-down" viewBox="0 0 64 32">
<path fill="none"   stroke-linejoin="round" stroke-linecap="round" stroke-miterlimit="4" stroke-width="12.8" d="M6.4 6.4l25.6 18.432 25.6-18.432"></path>
</symbol>

<symbol id="whatsapp" viewBox="0 0 32 32">
<path fill="#00e676" style="fill: var(--color1, #00e676)" d="M8.461 27.406l0.523 0.258c2.179 1.293 4.62 1.896 7.061 1.896 7.67 0 13.946-6.205 13.946-13.79 0-3.619-1.482-7.153-4.097-9.738-2.517-2.503-5.987-4.050-9.819-4.050-0.011 0-0.022 0-0.033 0h0.002c-7.67 0-13.946 6.205-13.859 13.875 0 2.586 0.784 5.085 2.091 7.24l0.349 0.517-1.394 5.085 5.23-1.293z"></path>
<path fill="#fff" style="fill: var(--color2, #fff)" d="M27.373 4.654c-2.963-3.016-7.060-4.654-11.244-4.654-8.891 0-16.038 7.154-15.953 15.858 0 2.758 0.785 5.43 2.093 7.843l-2.266 8.187 8.455-2.154c2.353 1.293 4.968 1.896 7.583 1.896 8.804 0 15.952-7.153 15.952-15.858 0-4.223-1.657-8.188-4.621-11.118zM16.129 28.958c-2.354 0-4.707-0.602-6.712-1.81l-0.523-0.258-5.055 1.293 1.307-4.912-0.348-0.518c-3.836-6.119-2.006-14.221 4.27-18.013s14.382-1.982 18.218 4.223c3.835 6.206 2.005 14.221-4.27 18.013-2.006 1.293-4.446 1.982-6.886 1.982zM23.799 19.392l-0.958-0.431s-1.395-0.603-2.266-1.034c-0.088 0-0.174-0.086-0.262-0.086-0.262 0-0.436 0.086-0.61 0.173 0 0-0.087 0.086-1.307 1.465-0.082 0.155-0.242 0.259-0.426 0.259-0.003 0-0.007-0-0.010-0h-0.087c-0.087 0-0.262-0.086-0.349-0.173l-0.436-0.172c-0.958-0.431-1.83-0.948-2.528-1.638-0.174-0.173-0.435-0.345-0.61-0.518-0.61-0.603-1.221-1.293-1.656-2.068l-0.088-0.173c-0.086-0.086-0.086-0.172-0.174-0.344 0-0.173 0-0.345 0.087-0.432 0 0 0.349-0.43 0.61-0.689 0.174-0.173 0.261-0.431 0.435-0.603 0.174-0.258 0.262-0.603 0.174-0.862-0.087-0.43-1.133-2.758-1.394-3.274-0.174-0.259-0.349-0.345-0.61-0.431h-0.958c-0.174 0-0.349 0.086-0.523 0.086l-0.087 0.086c-0.174 0.086-0.349 0.259-0.523 0.345-0.174 0.173-0.262 0.345-0.436 0.518-0.61 0.776-0.958 1.724-0.958 2.672 0 0.689 0.174 1.378 0.436 1.982l0.087 0.259c0.822 1.714 1.905 3.171 3.216 4.387l0.009 0.008 0.349 0.344c0.262 0.259 0.523 0.432 0.698 0.69 1.83 1.552 3.922 2.672 6.276 3.275 0.261 0.086 0.61 0.086 0.872 0.173h0.871c0.435 0 0.958-0.173 1.307-0.345 0.262-0.173 0.436-0.173 0.61-0.345l0.174-0.173c0.174-0.172 0.349-0.258 0.522-0.43s0.349-0.345 0.436-0.518c0.174-0.344 0.262-0.776 0.349-1.206v-0.603s-0.088-0.086-0.262-0.172z"></path>
</symbol>
<symbol id="telegram-support" viewBox="0 0 32 32">
<path fill="#40b3e0" style="fill: var(--color2, #40b3e0)" d="M16 0c-8.837 0-16 7.163-16 16s7.163 16 16 16 16-7.163 16-16-7.163-16-16-16z"></path>
<path fill="#fff" style="fill: var(--color1, #fff)" d="M23.788 9.197l-2.858 14.408s-0.4 1-1.498 0.52l-6.595-5.056-2.398-1.158-4.037-1.36s-0.619-0.219-0.68-0.698c-0.059-0.48 0.7-0.74 0.7-0.74l16.047-6.295s1.319-0.579 1.319 0.38z"></path>
<path fill="#d2e5f1" style="fill: var(--color3, #d2e5f1)" d="M12.328 23.446s-0.192-0.018-0.432-0.777c-0.24-0.76-1.458-4.757-1.458-4.757l9.692-6.154s0.56-0.34 0.54 0c0 0 0.1 0.060-0.2 0.339s-7.614 6.854-7.614 6.854z"></path>
<path fill="#b5cfe4" style="fill: var(--color4, #b5cfe4)" d="M15.363 21.013l-2.608 2.378s-0.204 0.154-0.427 0.058l0.5-4.418z"></path>
</symbol>
</defs>
</svg>
