<svg xmlns="http://www.w3.org/2000/svg" width="40" height="41" fill="none">
  <path fill="url(#a)" d="M15.67.548a1.65 1.65 0 0 1 2.878 1.128c0 2.107 0 4.71-.075 6.198a1.239 1.239 0 0 0 1.24 1.24l3.61.062a1.688 1.688 0 0 1 1.601 2.48C18.387 23.32 17.754 24.82 13.995 31.49a1.687 1.687 0 0 1-3.138-.893c0-2.48-.087-5.12-.149-6.198a.942.942 0 0 0-.471-.818 2.817 2.817 0 0 0-1.13-.36c-.954-.074-2.195.112-3.336 0-1.402 0-1.948-1.574-1.141-2.9.459-.856 8.187-15.285 11.04-19.773Z"/>
  <path fill="url(#b)" d="M15.67.548a1.65 1.65 0 0 1 2.878 1.128c0 2.107 0 4.71-.075 6.198a1.239 1.239 0 0 0 1.24 1.24l3.61.062a1.688 1.688 0 0 1 1.601 2.48C18.387 23.32 17.754 24.82 13.995 31.49a1.687 1.687 0 0 1-3.138-.893c0-2.48-.087-5.12-.149-6.198a.942.942 0 0 0-.471-.818 2.817 2.817 0 0 0-1.13-.36c-.954-.074-2.195.112-3.336 0-1.402 0-1.948-1.574-1.141-2.9.459-.856 8.187-15.285 11.04-19.773Z"/>
  <path fill="url(#c)" fill-rule="evenodd" d="M24.898 11.668a1.685 1.685 0 0 0-1.6-2.48l-3.61-.061a1.241 1.241 0 0 1-1.24-1.24c0-1.512.074-4.115.074-6.198a1.647 1.647 0 0 0-2.03-1.631 1.65 1.65 0 0 0-.848.503c-2.121 3.335-6.959 12.198-9.502 16.86-.868 1.598-1.464 2.702-1.6 2.925-.807 1.326-.26 2.838 1.141 2.9.574.031 1.15.031 1.724 0a11.856 11.856 0 0 1 1.613 0c.397.039.782.162 1.129.36a.943.943 0 0 1 .471.818c0 1.116.186 3.806.149 6.198a1.685 1.685 0 0 0 2.338 1.716c.36-.153.657-.426.838-.774a339.563 339.563 0 0 0 3.721-6.805c1.625-2.963 3.424-6.31 7.232-13.09Zm-1.575-.719-3.622-.062a2.952 2.952 0 0 1-2.903-3c0-1.425.062-3.843.062-5.876-1.44 2.356-3.846 6.645-6.029 10.612l-2.99 5.467c-.918 1.686-1.563 2.888-1.711 3.123a.818.818 0 0 0-.125.323H7.42a14.196 14.196 0 0 1 1.786 0c.645.06 1.27.254 1.836.57a2.655 2.655 0 0 1 1.364 2.231c.062 1.116.174 3.819.137 6.285 1.513-2.702 2.48-4.561 3.634-6.62l.683-1.239c1.439-2.777 3.213-6 6.463-11.814Z" clip-rule="evenodd"/>
  <path fill="url(#d)" d="M34.065 22.964c.818-.36 1.848.806 1.24 1.773-.608.966-1.625 2.293-2.233 3.186a1.24 1.24 0 0 0 .298 1.698l1.737 1.24a1.165 1.165 0 0 1 0 2.02c-8.188 4.09-9.118 4.71-13.807 7.066a1.242 1.242 0 0 1-1.602-1.075 1.24 1.24 0 0 1 .15-.71c.881-1.24 1.774-2.74 2.209-3.471a.867.867 0 0 0 0-.93 1.775 1.775 0 0 0-.422-.508c-.521-.41-1.24-.793-1.923-1.24-.682-.446-.508-1.66.46-2.107.607-.335 10.53-5.554 13.893-6.942Z"/>
  <path fill="url(#e)" d="M34.065 22.964c.818-.36 1.848.806 1.24 1.773-.608.966-1.625 2.293-2.233 3.186a1.24 1.24 0 0 0 .298 1.698l1.737 1.24a1.165 1.165 0 0 1 0 2.02c-8.188 4.09-9.118 4.71-13.807 7.066a1.242 1.242 0 0 1-1.602-1.075 1.24 1.24 0 0 1 .15-.71c.881-1.24 1.774-2.74 2.209-3.471a.867.867 0 0 0 0-.93 1.775 1.775 0 0 0-.422-.508c-.521-.41-1.24-.793-1.923-1.24-.682-.446-.508-1.66.46-2.107.607-.335 10.53-5.554 13.893-6.942Z"/>
  <path fill="url(#f)" fill-rule="evenodd" d="M35.082 32.878a1.166 1.166 0 0 0 0-2.02l-1.737-1.24a1.24 1.24 0 0 1-.273-1.699c.608-.868 1.489-2.145 2.196-3.21.707-1.067-.385-2.133-1.24-1.773-2.482 1.078-8.61 4.24-11.835 5.9l-2.034 1.042c-.968.446-1.24 1.524-.46 2.107.31.236.658.446.993.657.321.185.632.388.93.608.172.141.315.313.422.508a.867.867 0 0 1 0 .93 66.053 66.053 0 0 1-2.208 3.47 1.238 1.238 0 0 0 1.451 1.786c1.96-.992 3.263-1.674 4.727-2.48 1.997-1.029 4.304-2.231 9.068-4.586Zm-8.92 2.85c1.774-.929 3.945-2.044 7.729-3.941l-1.39-.992a2.702 2.702 0 0 1-.657-3.719l1.489-2.17c-1.75.831-4.218 2.071-6.525 3.249l-3.722 1.933-1.985 1.017.447.273a9.12 9.12 0 0 1 1.042.706c.313.248.577.55.781.893a2.354 2.354 0 0 1 0 2.48 81.864 81.864 0 0 1-1.637 2.615l3.61-1.872.819-.471Z" clip-rule="evenodd"/>
  <defs>
    <linearGradient id="a" x1="22.021" x2="9.703" y1="3.92" y2="24.654" gradientUnits="userSpaceOnUse">
      <stop stop-color="#FFFD54"/>
      <stop offset="1" stop-color="#FFBC00"/>
    </linearGradient>
    <linearGradient id="b" x1="2.422" x2="17.367" y1="11.457" y2="17.29" gradientUnits="userSpaceOnUse">
      <stop stop-color="#fff"/>
      <stop offset="1" stop-color="#fff" stop-opacity="0"/>
    </linearGradient>
    <linearGradient id="c" x1="8.747" x2="18.539" y1="23.271" y2="11.612" gradientUnits="userSpaceOnUse">
      <stop stop-color="#F5BE41" stop-opacity=".8"/>
      <stop offset=".56" stop-color="#F8D147" stop-opacity=".56"/>
      <stop offset="1" stop-color="#FFFD54" stop-opacity="0"/>
    </linearGradient>
    <linearGradient id="d" x1="1520.58" x2="1320.44" y1="1194.43" y2="1104.35" gradientUnits="userSpaceOnUse">
      <stop stop-color="#FFFD54"/>
      <stop offset="1" stop-color="#FFBC00"/>
    </linearGradient>
    <linearGradient id="e" x1="1330.77" x2="1424.62" y1="1251.22" y2="1115.32" gradientUnits="userSpaceOnUse">
      <stop stop-color="#fff"/>
      <stop offset="1" stop-color="#fff" stop-opacity="0"/>
    </linearGradient>
    <linearGradient id="f" x1="20.903" x2="28.32" y1="33.212" y2="31.251" gradientUnits="userSpaceOnUse">
      <stop stop-color="#F5BE41" stop-opacity=".8"/>
      <stop offset="1" stop-color="#FFFD54" stop-opacity="0"/>
    </linearGradient>
  </defs>
</svg>
